<svg width="29" height="51" fill="none" xmlns="http://www.w3.org/2000/svg">
  <g clip-path="url(#a)">
    <path d="M14.7 0c-1.3 0-2.5.5-3.4 1.4a4.9 4.9 0 0 0 0 6.9 4.699 4.699 0 0 0 6.8 0 4.9 4.9 0 0 0 0-6.9C17.2.5 16 0 14.7 0zm-4.2 12.2h-.3a2.3 2.3 0 0 0-2.5 1.3l-7 14.6a2.5 2.5 0 0 0 1 3.3 2.4 2.4 0 0 0 3.2-1.1l2.7-5.5v23.8c0 .6.2 1.2.7 1.7a2.4 2.4 0 0 0 3.3 0c.5-.5.7-1 .7-1.7V36.4h4.8v12.2c0 .6.3 1.2.7 1.7a2.4 2.4 0 0 0 3.4 0c.4-.5.7-1 .7-1.7V25l2.5 5.3a2.399 2.399 0 0 0 1.4 1.2 2.3 2.3 0 0 0 2.6-.7 2.4 2.4 0 0 0 .3-2.7l-7-14.6a2.4 2.4 0 0 0-2.5-1.3H10.5z" fill="#A2A2A2"/>
  </g>
  <defs>
    <clipPath id="a">
      <path fill="#fff" d="M0 0h29v51H0z"/>
    </clipPath>
  </defs>
</svg>
