<svg width="27" height="27" viewBox="0 0 27 27" fill="none" xmlns="http://www.w3.org/2000/svg">
<g id="Npologo 1" clip-path="url(#clip0_927_941)">
<g id="layer1">
<g id="g2993">
<g id="g2995">
<g id="Clip path group">
<mask id="mask0_927_941" style="mask-type:luminance" maskUnits="userSpaceOnUse" x="-9" y="-7" width="46" height="40">
<g id="clipPath2999">
<path id="path3001" d="M-9 -6.26759H36.6051V33H-9V-6.26759Z" fill="white"/>
</g>
</mask>
<g mask="url(#mask0_927_941)">
<g id="g2997">
<g id="g3003">
<path id="path3005" d="M16.0619 3.52538L15.2616 2.72697C14.4689 1.93233 13.514 1.91848 12.6237 2.80945L11.9897 3.44416C11.0981 4.33482 11.1129 5.28814 11.9059 6.08246L12.7062 6.88056C13.4995 7.67709 14.4541 7.69063 15.3444 6.79997L15.9781 6.16463C16.8697 5.27397 16.8555 4.32002 16.0619 3.52538ZM12.0529 7.53447L11.2514 6.73668C10.4581 5.94236 9.50447 5.92756 8.61416 6.81917L7.97948 7.45419C7.08854 8.34422 7.10239 9.29691 7.89605 10.0922L10.4628 12.6578C10.7593 12.9528 11.0931 12.9096 11.3207 12.682C11.5486 12.4541 11.587 12.1263 11.2914 11.8294L10.7008 11.2404C10.8613 11.2064 11.0591 11.0839 11.2917 10.8519L11.9692 10.1734C12.8614 9.28306 12.846 8.33006 12.0529 7.53447ZM8.87074 12.5177L7.17071 10.8185C6.37642 10.0242 5.42377 10.0094 4.5322 10.9004L3.89752 11.5341C3.00658 12.4251 3.02075 13.379 3.81536 14.1734L5.51412 15.8744C5.81132 16.1704 6.14377 16.126 6.37201 15.8996C6.599 15.6707 6.63835 15.3404 6.34147 15.0461L4.65718 13.3598C4.33796 13.0415 4.34772 12.7409 4.70661 12.3826L5.3797 11.7098C5.73733 11.3509 6.03862 11.3405 6.35753 11.661L8.04213 13.345C8.33712 13.6419 8.66705 13.6023 8.89466 13.3749C9.12291 13.1467 9.16667 12.8139 8.87074 12.5177ZM26.2224 14.6604L15.6787 25.2036C14.6175 26.2655 13.3997 26.2655 12.3391 25.2036L1.79642 14.661C0.734528 13.5994 0.734528 12.3826 1.79642 11.321L12.3394 0.778778C13.4013 -0.283785 14.6178 -0.283785 15.6787 0.778778L26.2214 11.321C27.2836 12.3816 27.2836 13.5991 26.2224 14.6604ZM14.4497 3.56883C14.1292 3.24928 13.8292 3.25872 13.4712 3.61795L12.7978 4.29137C12.4402 4.64871 12.4298 4.94969 12.7503 5.2683L13.5194 6.0387C13.8392 6.3592 14.1386 6.34944 14.4978 5.99022L15.1709 5.31679C15.5279 4.95976 15.5383 4.65784 15.2191 4.33954L14.4497 3.56883ZM11.2095 8.34926C11.5288 8.66819 11.5187 8.96948 11.1604 9.3265L10.4877 9.99993C10.1281 10.3585 9.82999 10.3683 9.50982 10.0481L8.73977 9.2777C8.42023 8.95909 8.42936 8.65811 8.78731 8.30046L9.45976 7.62703C9.8196 7.26812 10.1193 7.25931 10.4395 7.57855L11.2095 8.34926Z" fill="#FF6D00"/>
</g>
<g id="g3007">
<path id="path3009" d="M10.9854 8.26641L10.2154 7.4957C9.89521 7.17645 9.5955 7.18495 9.23566 7.54418L8.56321 8.21761C8.20526 8.57494 8.19613 8.87624 8.51567 9.19454L9.28572 9.96525C9.60589 10.2854 9.90402 10.2757 10.2635 9.91708L10.9363 9.24365C11.2946 8.88663 11.3047 8.58533 10.9854 8.26641ZM11.8288 7.45162C12.6219 8.24689 12.6373 9.2002 11.7451 10.0906L11.0676 10.769C10.8349 11.001 10.6372 11.1235 10.4767 11.1575L11.0673 11.7466C11.3629 12.0435 11.3245 12.3712 11.0969 12.5991C10.8689 12.8265 10.5352 12.8699 10.2387 12.5749L7.67195 10.0093C6.87829 9.21406 6.86444 8.26105 7.75538 7.37102L8.39005 6.73632C9.28037 5.84471 10.234 5.85919 11.0273 6.65383L11.8288 7.45162ZM14.995 4.25669L14.2256 3.48566C13.9051 3.16642 13.605 3.17587 13.2471 3.53509L12.5737 4.20821C12.2161 4.56586 12.2057 4.86684 12.5265 5.18545L13.2953 5.95584C13.6154 6.27635 13.9145 6.26627 14.2737 5.90736L14.9468 5.23393C15.3038 4.8766 15.3142 4.57467 14.995 4.25669ZM15.8378 3.44253C16.6314 4.23717 16.6456 5.1908 15.754 6.08178L15.1203 6.71711C14.23 7.60778 13.2754 7.59392 12.4821 6.79771L11.6818 5.99961C10.8888 5.20497 10.874 4.25197 11.7659 3.3613L12.3996 2.72628C13.2899 1.83531 14.2451 1.84947 15.0375 2.64411L15.8378 3.44253ZM8.64663 12.4345C8.94256 12.7311 8.89912 13.0635 8.67056 13.2921C8.44294 13.5194 8.11301 13.5591 7.81803 13.2622L6.13342 11.5781C5.81451 11.2576 5.51323 11.268 5.15559 11.6269L4.48251 12.2997C4.12361 12.6577 4.11385 12.9584 4.43308 13.277L6.11737 14.9632C6.41424 15.2576 6.37489 15.5879 6.14791 15.8164C5.91966 16.0431 5.58753 16.0875 5.29002 15.7912L3.59125 14.0905C2.79665 13.2962 2.78248 12.3419 3.67342 11.4509L4.30841 10.8175C5.19998 9.92621 6.15231 9.94101 6.9466 10.7356L8.64663 12.4345Z" fill="white"/>
</g>
</g>
</g>
</g>
</g>
</g>
</g>
</g>
<defs>
<clipPath id="clip0_927_941">
<rect width="27" height="27" fill="white"/>
</clipPath>
</defs>
</svg>
