<svg width="145" height="45" viewBox="0 0 145 45" fill="none" xmlns="http://www.w3.org/2000/svg">
<g id="KRO-NCRV_Pointer_logo 1" clip-path="url(#clip0_927_902)">
<g id="Clip path group">
<mask id="mask0_927_902" style="mask-type:luminance" maskUnits="userSpaceOnUse" x="0" y="0" width="145" height="45">
<g id="a">
<path id="Vector" d="M0 0H144.803V44.0751H0V0Z" fill="white"/>
</g>
</mask>
<g mask="url(#mask0_927_902)">
<g id="Group">
<path id="Vector_2" d="M52.9717 15.535V26.7942C52.9717 32.9471 52.0116 35.7836 47.9969 35.7836C45.0295 35.7836 43.5022 33.7326 42.8039 32.1616V44.0751H37V6.98212H42.8039V10.1676C43.5022 8.59662 45.0295 6.54565 47.9969 6.54565C52.0116 6.54565 52.9717 9.38188 52.9717 15.535ZM47.1679 15.0553C47.1679 12.7423 46.5133 11.9133 45.0732 11.9133C43.5459 11.9133 42.8039 12.8732 42.8039 15.0988V27.2307C42.8039 29.4563 43.5459 30.4164 45.0732 30.4164C46.5133 30.4164 47.1679 29.5872 47.1679 27.2744V15.0551V15.0553ZM54.63 16.5826C54.63 9.55676 57.3355 6.54565 62.6159 6.54565C67.8961 6.54565 70.6017 9.55676 70.6017 16.5826V25.7469C70.6017 32.7727 67.8961 35.7836 62.6159 35.7836C57.3355 35.7836 54.63 32.7727 54.63 25.7469V16.5826ZM60.4341 25.965C60.4341 29.456 60.9575 30.4162 62.6159 30.4162C64.2742 30.4162 64.7978 29.456 64.7978 25.965V16.3643C64.7978 12.8732 64.2304 11.9133 62.6159 11.9133C60.9575 11.9133 60.4341 12.8732 60.4341 16.3643V25.965ZM72.2599 2.66184C72.2599 1.17802 73.6128 0 75.271 0C76.8857 0 78.2384 1.17802 78.2384 2.66184C78.2384 4.05821 76.8857 5.23671 75.271 5.23671C73.6128 5.23671 72.2599 4.05821 72.2599 2.66184ZM72.3473 35.3473V6.98212H78.1512V35.3473H72.3473ZM95.8684 15.535V35.3473H90.0642V15.0551C90.0642 12.7423 89.4097 11.9133 87.9698 11.9133C86.4423 11.9133 85.7005 12.8732 85.7005 15.0988V35.3473H79.8966V6.98212H85.7005V10.1676C86.3988 8.59662 87.9261 6.54565 90.8935 6.54565C94.9082 6.54565 95.8684 9.38188 95.8684 15.535ZM110.051 6.98188V12.3495H105.556V25.8341C105.556 29.107 106.211 29.9797 108.174 29.9797H110.051V35.3473H106.778C100.712 35.3473 99.7084 32.6418 99.7084 25.8341V12.3495H96.9592V6.98212C99.5341 6.2401 100.276 3.22923 100.232 0.436232H106.036C106.036 3.49082 105.076 6.41473 102.938 6.98212L110.051 6.98188ZM127.463 16.5826V22.2556H117.295V25.965C117.295 29.456 117.862 30.4162 119.521 30.4162C121.179 30.4162 121.659 29.456 121.659 25.965V24.2193H127.463V25.7469C127.463 32.7727 124.801 35.7836 119.521 35.7836C114.24 35.7836 111.491 32.7727 111.491 25.7469V16.5826C111.491 9.55676 114.24 6.54565 119.521 6.54565C124.801 6.54565 127.463 9.55676 127.463 16.5826ZM121.659 16.3643C121.659 12.8732 121.135 11.9133 119.521 11.9133C117.862 11.9133 117.295 12.8732 117.295 16.3643V18.328H121.659V16.3643ZM145.049 15.4915V17.0626H139.201V14.9679C139.201 12.8297 138.721 11.9133 137.325 11.9133C135.885 11.9133 135.012 13.2225 135.012 15.3606V35.3473H129.208V6.98212H135.012V10.2551C135.754 8.64034 137.325 6.54565 140.38 6.54565C144.264 6.54565 145.049 9.46932 145.049 15.4915Z" fill="black"/>
<path id="Vector_3" d="M17.7766 38.5531C27.5942 38.5531 35.5531 30.5942 35.5531 20.7766C35.5531 10.9589 27.5942 3 17.7766 3C7.95894 3 0 10.9589 0 20.7766C0 30.5942 7.95894 38.5531 17.7766 38.5531Z" fill="url(#paint0_radial_927_902)"/>
<path id="Vector_4" d="M18.1106 28.2215C22.0377 28.2215 25.2213 25.0379 25.2213 21.1109C25.2213 17.1838 22.0377 14 18.1106 14C14.1836 14 11 17.1836 11 21.1109C11 25.0382 14.1836 28.2215 18.1106 28.2215Z" fill="#FF5362"/>
</g>
</g>
</g>
</g>
<defs>
<radialGradient id="paint0_radial_927_902" cx="0" cy="0" r="1" gradientUnits="userSpaceOnUse" gradientTransform="translate(17.7766 20.7766) scale(17.7766)">
<stop offset="0.677" stop-color="#28006D"/>
<stop offset="0.683" stop-color="#231874"/>
<stop offset="0.697" stop-color="#1C4181"/>
<stop offset="0.712" stop-color="#15668D"/>
<stop offset="0.728" stop-color="#0F8797"/>
<stop offset="0.746" stop-color="#0AA29F"/>
<stop offset="0.766" stop-color="#06B8A6"/>
<stop offset="0.79" stop-color="#03C9AB"/>
<stop offset="0.819" stop-color="#01D5AF"/>
<stop offset="0.86" stop-color="#00DCB1"/>
<stop offset="0.975" stop-color="#00DEB2"/>
</radialGradient>
<clipPath id="clip0_927_902">
<rect width="144.928" height="44.4444" fill="white"/>
</clipPath>
</defs>
</svg>
